<svg width="72" height="45" viewBox="0 0 72 45" fill="none" xmlns="http://www.w3.org/2000/svg">
<g clip-path="url(#clip0_78_274)">
<path d="M70.5256 0.0359881C70.0091 0.203163 68.1678 1.7898 66.9677 3.10592C66.2749 3.8658 65.3786 4.99651 65.2449 5.27615C65.178 5.41875 65.1413 5.57367 65.1371 5.73116C65.133 5.88865 65.1615 6.0453 65.2209 6.19122C65.2802 6.33714 65.3692 6.46917 65.4821 6.579C65.595 6.68883 65.7294 6.77407 65.8769 6.82935C66.1139 6.92054 66.442 6.92358 66.679 6.83239C66.9221 6.73817 67.077 6.58923 67.4751 6.06035C68.5263 4.66216 69.9422 3.2427 71.3186 2.20926C71.8716 1.79588 72.0113 1.55272 71.9901 1.05727C71.9799 0.844254 71.9089 0.638608 71.7856 0.464634C71.6623 0.29066 71.4918 0.15563 71.2943 0.0755021C71.0786 -0.00656539 70.72 -0.0248026 70.5256 0.0359881Z" fill="#FBF850"/>
<path d="M63.7387 8.1636C63.4166 8.27302 63.2526 8.43412 62.9518 8.92652C62.4413 9.76847 61.8397 11.2578 61.2138 13.2427C60.7125 14.8263 60.3388 16.1302 59.2936 19.9296C57.6802 25.7959 56.9176 28.2428 56.0699 30.2884C55.5382 31.5711 54.9335 32.6227 54.5355 32.951L54.4261 33.0392L54.3198 32.9844C54.0129 32.8173 53.5967 32.1486 53.2685 31.2975C52.831 30.1668 52.5423 29.0969 51.8192 25.9327C50.9472 22.1211 50.5006 20.6257 49.823 19.2853C49.1394 17.9266 48.3646 17.1849 47.3376 16.9023C47.1705 16.8567 47.0247 16.8445 46.654 16.8445C46.2438 16.8445 46.1527 16.8536 45.9552 16.9144C44.8188 17.27 43.9407 18.3339 43.1812 20.264C42.6981 21.492 42.3638 22.6318 41.5648 25.7656C40.9601 28.1364 40.711 29.0331 40.3919 29.9905C39.9392 31.3583 39.4349 32.3644 39.0095 32.7534C38.815 32.9328 38.7239 32.9662 38.6206 32.8993C38.4839 32.8082 38.2347 32.4343 38.0099 31.9814C37.6301 31.2094 37.4204 30.6258 36.7338 28.4251C36.2537 26.8811 36.0258 26.2032 35.7554 25.5224C34.9229 23.413 33.9658 22.4312 32.6927 22.3704C32.4193 22.3582 32.3099 22.3673 32.0942 22.419C31.5929 22.5376 31.1644 22.7838 30.7695 23.1789C30.3167 23.6348 29.9856 24.1272 29.5784 24.9601C29.1439 25.8446 28.8918 26.5042 28.1291 28.7443C27.3756 30.954 27.0535 31.7626 26.6677 32.4069C26.5127 32.6653 26.3274 32.9085 26.2818 32.9085C26.221 32.9085 26.0053 32.6562 25.7987 32.337C25.4463 31.799 25.1667 31.2306 24.4527 29.5954C23.7782 28.0543 23.2434 27.027 22.7877 26.4099C22.3988 25.8811 21.8185 25.3886 21.3718 25.2124C20.7277 24.954 20.1291 24.9874 19.567 25.3157C19.2419 25.5072 18.771 25.9966 18.452 26.4798C18.0084 27.1485 17.7653 27.6227 16.954 29.3826C16.3616 30.6714 15.9028 31.5954 15.6567 32.0057C15.4561 32.337 15.1736 32.7261 15.128 32.7261C15.1006 32.7261 14.7634 32.2367 14.5993 31.951C14.5598 31.8841 14.2499 31.2853 13.9126 30.6167C13.5754 29.948 13.1895 29.2306 13.0619 29.0179C12.2993 27.7382 11.561 27.1637 10.6798 27.1637C9.99012 27.1637 9.32169 27.5285 8.81428 28.1789C8.37068 28.7443 8.1033 29.2793 7.4136 30.9784C7.04292 31.8933 6.62666 32.7261 6.54463 32.7261C6.50209 32.7261 6.25902 32.1972 6.04633 31.6471C5.45082 30.103 5.2594 29.6774 4.95253 29.2154C4.39954 28.3826 3.70984 27.9814 2.88948 28.0209C2.38815 28.0482 1.96278 28.2397 1.46449 28.6683C1.0057 29.0634 0.309913 29.9388 0.0941891 30.3856C0.00911508 30.5619 0 30.6106 0 30.8568C0.00303836 31.0635 0.0182302 31.1698 0.0698823 31.2975C0.175462 31.5519 0.369812 31.7593 0.616787 31.8811C0.805165 31.9753 0.841625 31.9814 1.12419 31.9814C1.38853 31.9814 1.4493 31.9723 1.59514 31.9024C1.82302 31.796 1.95974 31.6714 2.12989 31.41C2.32704 31.1067 2.54856 30.8201 2.79225 30.5528L2.9624 30.3704L3.02621 30.4464C3.13255 30.5711 3.39689 31.1303 3.61565 31.6926C4.11698 32.9875 4.22332 33.2458 4.36612 33.5316C4.81884 34.4343 5.31105 34.9146 5.98557 35.1152C6.23167 35.1912 6.73604 35.1912 6.99734 35.1182C7.57767 34.9601 8.09723 34.5437 8.52867 33.8963C8.78997 33.5012 9.19711 32.6562 9.60121 31.6623C9.97797 30.7322 10.4094 29.8294 10.5583 29.6562L10.6494 29.5498L10.7528 29.6714C10.9472 29.8932 11.2936 30.5103 11.9104 31.717C12.5606 32.9966 12.7186 33.2793 13.0619 33.7899C13.308 34.1547 13.7668 34.6349 14.0342 34.8082C14.4231 35.0605 14.9032 35.179 15.3224 35.1273C16.2066 35.0149 16.9297 34.3735 17.7227 32.9996L17.905 32.6805L19.2845 32.6653C20.6335 32.6501 20.6639 32.6471 20.8371 32.5772C21.0619 32.489 21.3475 32.2276 21.4478 32.0179C21.782 31.3249 21.3779 30.5315 20.6153 30.3856C20.5272 30.3704 20.1352 30.3553 19.7463 30.3553C19.3574 30.3553 19.0353 30.3461 19.0353 30.337C19.0353 30.3097 19.5427 29.2215 19.7281 28.8507C20.0349 28.2367 20.4907 27.4798 20.591 27.4191C20.6426 27.3856 20.8553 27.6227 21.0862 27.9692C21.4599 28.5285 21.7303 29.0786 22.4899 30.8112C22.9487 31.8568 23.3316 32.6562 23.5898 33.106C24.1701 34.1121 24.7171 34.7079 25.3399 35.0057C25.7592 35.2094 26.1785 35.2823 26.5704 35.2216C27.7372 35.0392 28.5606 34.0756 29.4235 31.8902C29.6848 31.2337 29.8792 30.6866 30.3836 29.2002C31.1462 26.954 31.5655 25.9449 32.0365 25.2336C32.2036 24.9753 32.5135 24.6409 32.5834 24.6409C32.6441 24.6409 32.8234 24.8263 32.9723 25.0421C33.4189 25.6896 33.8169 26.7169 34.5765 29.1698C35.2176 31.2489 35.5883 32.2641 35.9924 33.0635C36.5241 34.1152 37.1257 34.7656 37.8336 35.0574C38.4322 35.3036 39.2191 35.2611 39.8329 34.951C40.5682 34.5802 41.2427 33.7899 41.7896 32.6501C42.4185 31.3492 42.8561 29.951 43.8131 26.1911C44.5606 23.2519 44.8857 22.1424 45.3202 21.0543C45.7091 20.0877 46.1891 19.3157 46.5082 19.1515C47.0368 18.878 47.7782 19.9418 48.4345 21.9266C48.7596 22.9053 49.0239 23.9388 49.6316 26.6045C50.4763 30.2975 50.8925 31.7078 51.5063 32.9632C52.2567 34.4921 53.2867 35.3127 54.4535 35.3097C55.8937 35.3067 57.0604 33.9571 58.297 30.872C59.1538 28.7352 59.9377 26.1941 61.5268 20.416C62.6267 16.4099 63.0459 14.9661 63.5534 13.425C64.1094 11.7351 64.5773 10.6074 64.9814 9.98732C65.1637 9.7016 65.2214 9.55571 65.2396 9.31254C65.2557 9.06352 65.1895 8.81612 65.0511 8.60849C64.9127 8.40086 64.7099 8.24453 64.474 8.1636C64.2643 8.09065 63.9514 8.09065 63.7387 8.1636Z" fill="#FBF850"/>
<path d="M1.61031 44.5318C1.53776 44.5326 1.46725 44.5078 1.4113 44.4616C1.35272 44.4128 1.31034 44.3474 1.28977 44.274L0.0294541 40.0858C-0.0115638 39.9451 -0.0115638 39.8396 0.0409998 39.7579C0.0880944 39.6758 0.169826 39.6363 0.275257 39.6363C0.344256 39.6349 0.411923 39.6554 0.468497 39.695C0.530674 39.7403 0.57395 39.8069 0.590031 39.8822L1.68384 43.7075H1.5459L2.55889 39.9232C2.57557 39.8587 2.61522 39.8025 2.6704 39.7652C2.72813 39.7229 2.79789 39.7004 2.86941 39.7007C2.93722 39.7017 3.0037 39.7198 3.06265 39.7533C3.09183 39.7704 3.11724 39.7933 3.13735 39.8205C3.15745 39.8477 3.17183 39.8787 3.17963 39.9117L4.19869 43.7017H4.07564L5.17643 39.8472C5.21745 39.7065 5.32288 39.6363 5.4985 39.6363C5.61548 39.6363 5.69174 39.6831 5.72699 39.7709C5.76223 39.8588 5.76193 39.9643 5.72699 40.0874L4.46789 44.2698C4.44271 44.3444 4.39827 44.4111 4.33906 44.4631C4.28311 44.5093 4.2126 44.5342 4.14005 44.5333C4.06436 44.5359 3.9907 44.5086 3.93496 44.4573C3.87903 44.4083 3.83709 44.3454 3.81343 44.2749L2.805 40.3728H2.95691L1.93815 44.2634C1.91262 44.3379 1.86823 44.4045 1.80932 44.4567C1.75521 44.5066 1.68387 44.5335 1.61031 44.5318V44.5318Z" fill="#FBF850"/>
<path d="M7.82257 44.5319C7.76816 44.5331 7.71444 44.5196 7.66703 44.4928C7.61963 44.4661 7.58027 44.4271 7.55307 44.38C7.48865 44.2806 7.48288 44.1751 7.53575 44.0578L9.298 39.852C9.36241 39.7055 9.46176 39.6353 9.60183 39.6353C9.75375 39.6353 9.85341 39.7055 9.90567 39.852L11.674 44.0696C11.7208 44.1867 11.715 44.2921 11.6506 44.3861C11.592 44.4797 11.4987 44.5265 11.3753 44.5265C11.3128 44.527 11.2516 44.5087 11.1997 44.4739C11.1425 44.4413 11.0988 44.3894 11.0767 44.3274L9.52496 40.4672H9.70058L8.12063 44.3274C8.09445 44.3902 8.04944 44.4433 7.99181 44.4794C7.9415 44.5125 7.88282 44.5308 7.82257 44.5319V44.5319ZM8.15041 43.4541L8.40229 42.9152H10.8558L11.1076 43.4541H8.15041Z" fill="#FBF850"/>
<path d="M14.3106 44.5319C14.2673 44.5329 14.2242 44.5251 14.1839 44.509C14.1437 44.4929 14.1071 44.4688 14.0765 44.4381C14.0458 44.4074 14.0217 44.3709 14.0056 44.3306C13.9895 44.2904 13.9817 44.2472 13.9828 44.2039V39.9628C13.9807 39.9193 13.988 39.8759 14.0042 39.8354C14.0204 39.795 14.0451 39.7585 14.0766 39.7285C14.1396 39.6683 14.2235 39.6347 14.3106 39.6349C14.3702 39.6338 14.4288 39.6498 14.4797 39.6809C14.5305 39.7121 14.5715 39.757 14.5977 39.8105L16.5593 43.7413H16.3603L18.269 39.8105C18.2929 39.7652 18.327 39.7261 18.3687 39.6962C18.4104 39.6664 18.4585 39.6467 18.5091 39.6388C18.5597 39.6308 18.6115 39.6348 18.6603 39.6503C18.7092 39.6659 18.7537 39.6927 18.7904 39.7285C18.8218 39.7585 18.8465 39.795 18.8626 39.8355C18.8788 39.8759 18.886 39.9193 18.8839 39.9628V44.2039C18.8843 44.2477 18.8757 44.2911 18.8585 44.3315C18.8414 44.3718 18.8161 44.4081 18.7843 44.4382C18.7547 44.4687 18.7192 44.4927 18.6799 44.5088C18.6407 44.5249 18.5985 44.5328 18.5561 44.5319C18.5127 44.5329 18.4696 44.5252 18.4293 44.5091C18.389 44.493 18.3524 44.4689 18.3218 44.4382C18.2911 44.4076 18.2669 44.371 18.2508 44.3307C18.2347 44.2904 18.2269 44.2473 18.228 44.2039V40.865L18.3495 40.8346L16.7088 44.178C16.6386 44.2893 16.5447 44.3422 16.4277 44.3422C16.364 44.3454 16.3008 44.3285 16.2472 44.2938C16.1935 44.2591 16.1522 44.2084 16.1291 44.1489L14.5072 40.8966L14.6287 40.8662V44.2051C14.6302 44.2485 14.6227 44.2918 14.6066 44.3321C14.5905 44.3725 14.5661 44.409 14.5351 44.4394C14.4745 44.4973 14.3944 44.5303 14.3106 44.5319Z" fill="#FBF850"/>
<path d="M22.0294 44.5321C21.986 44.5332 21.9429 44.5255 21.9026 44.5094C21.8624 44.4933 21.8258 44.4691 21.7951 44.4385C21.7645 44.4078 21.7404 44.3712 21.7243 44.3309C21.7082 44.2906 21.7004 44.2475 21.7015 44.2041V39.9631C21.6994 39.9196 21.7067 39.8762 21.7229 39.8357C21.739 39.7953 21.7636 39.7588 21.7951 39.7287C21.8582 39.6685 21.9421 39.635 22.0294 39.6351C22.0728 39.633 22.1162 39.6403 22.1567 39.6565C22.1971 39.6726 22.2336 39.6973 22.2636 39.7287C22.294 39.7596 22.3178 39.7963 22.3339 39.8365C22.35 39.8767 22.3579 39.9198 22.3572 39.9631V44.2041C22.3585 44.2475 22.3507 44.2906 22.3345 44.3308C22.3182 44.371 22.2938 44.4073 22.2627 44.4376C22.2323 44.4685 22.196 44.4928 22.1558 44.509C22.1157 44.5253 22.0726 44.5331 22.0294 44.5321Z" fill="#FBF850"/>
<path d="M26.731 44.5896C26.4704 44.5912 26.2112 44.5501 25.9639 44.468C25.7328 44.3913 25.5182 44.272 25.331 44.1163C25.1591 43.9777 25.0242 43.7986 24.9384 43.5951C24.9176 43.5571 24.9072 43.5144 24.9083 43.4711C24.9093 43.4279 24.9218 43.3857 24.9445 43.3489C24.9913 43.2729 25.0615 43.2273 25.1669 43.2027C25.2428 43.1854 25.3224 43.1979 25.3893 43.2376C25.4608 43.2778 25.5181 43.3392 25.5534 43.4133C25.613 43.5261 25.6969 43.6242 25.7992 43.7005C25.925 43.7937 26.0656 43.865 26.2151 43.9115C26.3819 43.9657 26.5563 43.9933 26.7317 43.9932C26.9211 43.9961 27.1096 43.9643 27.2877 43.8996C27.4457 43.8446 27.5869 43.7498 27.6975 43.6242C27.8044 43.5034 27.8611 43.3463 27.8558 43.185C27.8558 42.9625 27.768 42.7631 27.5982 42.5874C27.4226 42.4118 27.1424 42.3063 26.7432 42.2595C26.2267 42.2066 25.818 42.0543 25.5193 41.8036C25.2207 41.5458 25.0745 41.2352 25.0745 40.8546C25.0745 40.5792 25.1505 40.3449 25.3085 40.1516C25.4606 39.9582 25.6715 39.8118 25.9411 39.7124C26.2242 39.6087 26.5238 39.5572 26.8252 39.5604C27.0525 39.5563 27.2787 39.592 27.4937 39.6658C27.6757 39.733 27.8443 39.8322 27.9914 39.9589C28.1356 40.0883 28.2599 40.2383 28.3602 40.4042C28.4189 40.4978 28.4422 40.5798 28.4304 40.6619C28.4255 40.7011 28.4121 40.7387 28.3911 40.7721C28.3701 40.8055 28.342 40.8339 28.3089 40.8552C28.2713 40.8802 28.2284 40.8959 28.1837 40.9012C28.1389 40.9065 28.0935 40.9011 28.0512 40.8856C28.0078 40.8733 27.9673 40.8524 27.9321 40.8243C27.8969 40.7961 27.8677 40.7611 27.8461 40.7215C27.7855 40.6046 27.7019 40.5012 27.6003 40.4175C27.4988 40.333 27.384 40.2657 27.2606 40.2184C27.1139 40.1688 26.9597 40.145 26.8049 40.1482C26.4944 40.1421 26.2367 40.2008 26.0261 40.3181C25.8156 40.4355 25.7156 40.6221 25.7156 40.8686C25.7173 40.9967 25.7516 41.1222 25.8153 41.2333C25.8797 41.3504 25.9976 41.4501 26.1723 41.5321C26.347 41.6142 26.594 41.6725 26.9219 41.7078C27.4195 41.7607 27.806 41.9069 28.0813 42.1637C28.3566 42.4157 28.4969 42.7495 28.4969 43.1668C28.4969 43.4069 28.4501 43.6118 28.3508 43.7878C28.254 43.9614 28.1199 44.1114 27.9582 44.227C27.7878 44.3472 27.5976 44.4365 27.3961 44.4905C27.1817 44.5613 26.9568 44.5948 26.731 44.5896V44.5896Z" fill="#FBF850"/>
<path d="M33.312 44.5895C32.9673 44.593 32.6253 44.5293 32.305 44.402C32.0098 44.2852 31.7424 44.1076 31.5202 43.8807C31.297 43.6534 31.1234 43.3821 31.0107 43.0841C30.8892 42.7801 30.8284 42.4397 30.8284 42.0707C30.8235 41.7262 30.8854 41.384 31.0107 41.0631C31.1272 40.7688 31.3003 40.5003 31.5202 40.2728C31.7425 40.0459 32.0099 39.8682 32.305 39.7512C32.9532 39.5016 33.671 39.5016 34.3192 39.7512C34.6137 39.87 34.8809 40.0476 35.1044 40.2732C35.328 40.4989 35.5032 40.7677 35.6193 41.0634C35.7441 41.3844 35.806 41.7265 35.8016 42.071C35.806 42.4173 35.7441 42.7613 35.6193 43.0844C35.5046 43.3815 35.33 43.6519 35.1063 43.8787C34.8826 44.1054 34.6147 44.2837 34.3192 44.4023C34.0147 44.5321 33.6808 44.5895 33.312 44.5895ZM33.312 44.0038C33.5693 44.0074 33.8245 43.9576 34.0615 43.8573C34.2849 43.763 34.4863 43.6234 34.6531 43.4473C34.8208 43.2722 34.9522 43.0656 35.0396 42.8394C35.1296 42.5977 35.1752 42.3417 35.1742 42.0837C35.1758 41.8258 35.1302 41.5696 35.0396 41.3281C34.9559 41.1001 34.824 40.8927 34.6531 40.7202C34.4864 40.5454 34.2849 40.4077 34.0615 40.316C33.8236 40.2187 33.569 40.169 33.312 40.1697C33.0548 40.1662 32.7997 40.216 32.5627 40.316C32.3393 40.4077 32.1378 40.5454 31.9711 40.7202C31.8052 40.8967 31.6741 41.103 31.5846 41.3281C31.3975 41.8145 31.3975 42.353 31.5846 42.8394C31.6727 43.0653 31.804 43.2718 31.9711 43.4473C32.1374 43.6242 32.3385 43.7648 32.5618 43.86C32.8 43.957 33.0548 44.0062 33.312 44.005V44.0038Z" fill="#FBF850"/>
<path d="M38.3184 44.5319C38.2751 44.533 38.232 44.5253 38.1917 44.5092C38.1514 44.4931 38.1149 44.469 38.0842 44.4383C38.0535 44.4076 38.0294 44.371 38.0133 44.3307C37.9972 44.2905 37.9895 44.2473 37.9906 44.204V39.9629C37.9885 39.9194 37.9958 39.876 38.0119 39.8355C38.0281 39.7951 38.0527 39.7586 38.0842 39.7285C38.1473 39.6683 38.2312 39.6348 38.3184 39.6349H41.1526C41.2382 39.6323 41.3216 39.6615 41.3869 39.717C41.4162 39.7459 41.4391 39.7807 41.4542 39.819C41.4693 39.8573 41.4763 39.8983 41.4747 39.9395C41.4763 39.9789 41.4693 40.0182 41.4541 40.0547C41.4389 40.0911 41.416 40.1238 41.3869 40.1504C41.3221 40.2067 41.2383 40.236 41.1526 40.2325H38.6463V41.7553H40.4441C40.5296 41.7528 40.613 41.782 40.6783 41.8374C40.7346 41.8955 40.7661 41.9732 40.7661 42.0541C40.7661 42.135 40.7346 42.2127 40.6783 42.2708C40.6197 42.3295 40.5434 42.3529 40.4441 42.3529H38.6463V44.1982C38.6477 44.2416 38.6402 44.2848 38.6241 44.3252C38.608 44.3655 38.5837 44.4021 38.5527 44.4325C38.5226 44.4643 38.4862 44.4896 38.4459 44.5067C38.4056 44.5238 38.3622 44.5324 38.3184 44.5319V44.5319Z" fill="#FBF850"/>
<path d="M43.6425 40.2381C43.5624 40.2398 43.4848 40.2104 43.4258 40.156C43.3675 40.1035 43.3438 40.0272 43.3438 39.9393C43.3423 39.8592 43.3717 39.7816 43.4258 39.7226C43.4543 39.6946 43.4882 39.6728 43.5255 39.6587C43.5628 39.6446 43.6026 39.6384 43.6425 39.6405H46.992C47.072 39.639 47.1496 39.6684 47.2086 39.7226C47.2366 39.751 47.2584 39.785 47.2725 39.8223C47.2866 39.8596 47.2928 39.8995 47.2906 39.9393C47.2921 40.0194 47.2628 40.097 47.2086 40.156C47.156 40.2147 47.0798 40.2381 46.992 40.2381H43.6425ZM45.3172 44.5318C45.2739 44.5328 45.2308 44.5251 45.1905 44.509C45.1502 44.4929 45.1137 44.4688 45.083 44.4381C45.0523 44.4074 45.0282 44.3709 45.0121 44.3306C44.996 44.2903 44.9883 44.2472 44.9894 44.2038V39.6348H45.6393V44.2038C45.6404 44.2467 45.6329 44.2893 45.6171 44.3293C45.6014 44.3692 45.5778 44.4055 45.5478 44.4361C45.5177 44.4667 45.4818 44.4909 45.4422 44.5074C45.4026 44.5238 45.3601 44.5321 45.3172 44.5318Z" fill="#FBF850"/>
<path d="M50.6211 44.5318C50.5484 44.5327 50.4778 44.5078 50.4218 44.4616C50.3633 44.4127 50.3209 44.3474 50.3002 44.274L49.0411 40.0858C49.0001 39.9451 49.0001 39.8396 49.053 39.7579C49.0998 39.6758 49.1818 39.6363 49.2872 39.6363C49.3562 39.635 49.4239 39.6555 49.4805 39.695C49.5426 39.7403 49.5859 39.807 49.602 39.8822L50.6958 43.7074H50.5555L51.5685 39.9232C51.5851 39.8588 51.6246 39.8026 51.6797 39.7652C51.7375 39.7231 51.8072 39.7005 51.8787 39.7007C51.9465 39.7017 52.013 39.7198 52.0719 39.7533C52.1011 39.7704 52.1266 39.7933 52.1467 39.8205C52.1669 39.8477 52.1813 39.8787 52.1892 39.9117L53.2079 43.7017H53.0864L54.1872 39.8472C54.2282 39.7065 54.3337 39.6363 54.5093 39.6363C54.6266 39.6363 54.7025 39.6831 54.7378 39.7709C54.773 39.8588 54.773 39.9643 54.7378 40.0874L53.4787 44.2698C53.4535 44.3444 53.409 44.4111 53.3498 44.4631C53.2939 44.5094 53.2234 44.5343 53.1508 44.5333C53.0752 44.5359 53.0016 44.5086 52.946 44.4573C52.8895 44.4086 52.847 44.3456 52.823 44.2749L51.8158 40.3737H51.9677L50.9489 44.2643C50.9237 44.3389 50.8792 44.4056 50.8201 44.4576C50.7658 44.5071 50.6945 44.5337 50.6211 44.5318V44.5318Z" fill="#FBF850"/>
<path d="M56.8283 44.5319C56.7739 44.533 56.7203 44.5195 56.6729 44.4928C56.6256 44.466 56.5863 44.4271 56.5591 44.38C56.4947 44.2806 56.4886 44.1751 56.5415 44.0578L58.3037 39.852C58.3681 39.7055 58.4675 39.6353 58.6076 39.6353C58.7595 39.6353 58.8591 39.7055 58.9114 39.852L60.6797 44.0696C60.7265 44.1867 60.7207 44.2921 60.6563 44.3861C60.5977 44.4797 60.5044 44.5265 60.3811 44.5265C60.3186 44.527 60.2574 44.5087 60.2054 44.4739C60.1488 44.4411 60.1057 44.3891 60.0839 44.3274L58.5322 40.4672H58.7078L57.1279 44.3274C57.1017 44.3902 57.0567 44.4433 56.9991 44.4794C56.9487 44.5136 56.8892 44.5319 56.8283 44.5319V44.5319ZM57.1625 43.4541L57.4141 42.9152H59.8676L60.1194 43.4541H57.1625Z" fill="#FBF850"/>
<path d="M63.3223 44.5318C63.279 44.5328 63.2359 44.5251 63.1956 44.509C63.1553 44.4929 63.1188 44.4688 63.0881 44.4381C63.0574 44.4074 63.0333 44.3709 63.0172 44.3306C63.0011 44.2903 62.9934 44.2472 62.9945 44.2038V39.9627C62.9924 39.9192 62.9997 39.8758 63.0158 39.8354C63.032 39.795 63.0566 39.7585 63.0881 39.7284C63.1511 39.6681 63.2351 39.6345 63.3223 39.6348H64.4523C64.7628 39.6348 65.0439 39.6992 65.2839 39.8339C65.521 39.958 65.7179 40.147 65.8518 40.3788C65.9867 40.6071 66.0568 40.8767 66.0568 41.1813C66.0617 41.4454 65.9917 41.7055 65.8549 41.9314C65.7181 42.1573 65.5201 42.3399 65.2839 42.4579C65.0256 42.5857 64.7405 42.65 64.4523 42.6454H63.6502V44.2035C63.6517 44.2469 63.6441 44.2902 63.628 44.3305C63.6119 44.3709 63.5876 44.4074 63.5566 44.4378C63.4936 44.4983 63.4096 44.532 63.3223 44.5318V44.5318ZM63.6444 42.0424H64.4465C64.6229 42.0471 64.7977 42.0089 64.9561 41.9311C65.0973 41.8641 65.217 41.7588 65.3015 41.6272C65.3845 41.4918 65.4267 41.3352 65.423 41.1764C65.4267 41.0064 65.3848 40.8384 65.3015 40.6901C65.2186 40.5495 65.0993 40.4339 64.9561 40.3557C64.8096 40.274 64.6398 40.2387 64.4465 40.2387H63.6447L63.6444 42.0424ZM65.9232 44.5318C65.8684 44.5327 65.8142 44.5207 65.7649 44.4968C65.7149 44.4689 65.673 44.4285 65.6433 44.3795L64.5131 42.5637L65.1453 42.3813L66.1702 44.033C66.2464 44.1546 66.258 44.2673 66.2006 44.3728C66.1447 44.4792 66.0511 44.5318 65.9235 44.5318H65.9232Z" fill="#FBF850"/>
<path d="M68.8438 44.5319C68.8005 44.533 68.7573 44.5253 68.7171 44.5092C68.6768 44.4931 68.6402 44.469 68.6096 44.4383C68.5789 44.4076 68.5548 44.371 68.5387 44.3307C68.5226 44.2905 68.5149 44.2473 68.516 44.204V39.9629C68.5139 39.9194 68.5212 39.876 68.5373 39.8355C68.5534 39.7951 68.5781 39.7586 68.6096 39.7285C68.6727 39.6683 68.7566 39.6348 68.8438 39.6349H71.678C71.7635 39.6323 71.847 39.6615 71.9123 39.717C71.9415 39.7458 71.9645 39.7804 71.9796 39.8187C71.9947 39.8569 72.0017 39.8978 72.0001 39.9389C72.0017 39.9783 71.9947 40.0177 71.9796 40.0541C71.9644 40.0906 71.9414 40.1232 71.9123 40.1498C71.8476 40.2063 71.7637 40.2356 71.678 40.2319H69.172V41.7547H70.9695C71.055 41.7522 71.1384 41.7814 71.2037 41.8368C71.26 41.8948 71.2915 41.9726 71.2915 42.0535C71.2915 42.1344 71.26 42.2121 71.2037 42.2702C71.1451 42.3289 71.0691 42.3523 70.9695 42.3523H69.172V43.9222H71.678C71.7635 43.9195 71.847 43.9488 71.9123 44.0043C71.9414 44.0308 71.9644 44.0635 71.9796 44.1C71.9948 44.1364 72.0018 44.1758 72.0001 44.2152C72.0017 44.2564 71.9948 44.2974 71.9797 44.3357C71.9645 44.3741 71.9416 44.4088 71.9123 44.4377C71.8536 44.4964 71.7776 44.5198 71.678 44.5198H68.8438V44.5319Z" fill="#FBF850"/>
</g>
<defs>
<clipPath id="clip0_78_274">
<rect width="72" height="45" fill="white"/>
</clipPath>
</defs>
</svg>
