<svg xmlns="http://www.w3.org/2000/svg" width="1200" height="630" viewBox="0 0 1200 630">
  <!-- Background -->
  <rect width="1200" height="630" fill="#000000"/>
  
  <!-- Grid -->
  <g opacity="0.15">
    <path d="M0 44h1200M0 88h1200M0 132h1200M0 176h1200M0 220h1200M0 264h1200M0 308h1200M0 352h1200M0 396h1200M0 440h1200M0 484h1200M0 528h1200M0 572h1200M0 616h1200" stroke="#FBF850" stroke-width="1"/>
    <path d="M44 0v630M88 0v630M132 0v630M176 0v630M220 0v630M264 0v630M308 0v630M352 0v630M396 0v630M440 0v630M484 0v630M528 0v630M572 0v630M616 0v630M660 0v630M704 0v630M748 0v630M792 0v630M836 0v630M880 0v630M924 0v630M968 0v630M1012 0v630M1056 0v630M1100 0v630M1144 0v630" stroke="#FBF850" stroke-width="1"/>
  </g>

  <!-- Browser Frame -->
  <rect x="100" y="80" width="1000" height="470" rx="20" fill="#111" stroke="#333" stroke-width="2"/>
  <circle cx="135" cy="110" r="6" fill="#ff5f56"/>
  <circle cx="155" cy="110" r="6" fill="#ffbd2e"/>
  <circle cx="175" cy="110" r="6" fill="#27c93f"/>

  <!-- Hero Content Representation -->
  <text x="600" y="200" font-family="Arial, sans-serif" font-size="60" font-weight="bold" fill="#FFFFFF" text-anchor="middle">Vibe Coding +</text>
  <text x="600" y="270" font-family="Arial, sans-serif" font-size="60" font-weight="bold" fill="#FBF850" text-anchor="middle">Senior Oversight</text>
  
  <text x="600" y="330" font-family="Arial, sans-serif" font-size="18" fill="#888" text-anchor="middle" max-width="600">
    Rapid development with expert quality control.
  </text>
  
  <!-- Support Nodes Representation -->
  <circle cx="600" cy="440" r="50" fill="#111" stroke="#FBF850" stroke-width="2"/>
  <text x="600" y="445" font-family="Arial, sans-serif" font-size="14" font-weight="bold" fill="#FBF850" text-anchor="middle">CORE</text>
  
  <!-- Orbiting Nodes -->
  <circle cx="450" cy="440" r="20" fill="#1a1a1a" stroke="#333"/>
  <text x="450" y="444" font-family="Arial, sans-serif" font-size="8" fill="#fff" text-anchor="middle">QA</text>
  
  <circle cx="750" cy="440" r="20" fill="#1a1a1a" stroke="#333"/>
  <text x="750" y="444" font-family="Arial, sans-serif" font-size="8" fill="#fff" text-anchor="middle">DEVS</text>

  <circle cx="600" cy="540" r="20" fill="#1a1a1a" stroke="#333"/>
  <text x="600" y="544" font-family="Arial, sans-serif" font-size="8" fill="#fff" text-anchor="middle">DESIGN</text>

  <!-- Bottom Brand -->
  <text x="600" y="590" font-family="Arial, sans-serif" font-size="40" font-weight="bold" fill="#FBF850" text-anchor="middle" opacity="0.5">WAMI</text>
</svg>
